<svg width="120" height="120" viewBox="0 0 120 120" fill="none" xmlns="http://www.w3.org/2000/svg">
<circle cx="60" cy="60" r="60" fill="#E84142"/>
<path fill-rule="evenodd" clip-rule="evenodd" d="M63.5906 17.8111C61.5118 14.2205 58.2047 14.2205 56.126 17.8111L18.378 84.2835C16.2992 87.9213 18 90.8032 22.1575 90.8032H41.1024C44.9292 90.567 48.378 88.5355 50.4567 85.3229L73.2756 45.7796C74.9292 42.378 74.9292 38.3623 73.2756 34.9607L66.4725 23.0079L63.5906 17.8111ZM88.6772 61.5591C86.5984 57.9686 83.2441 57.9686 81.1654 61.5591L67.9843 84.2835C65.9528 87.8741 67.6536 90.8032 71.7638 90.8032H97.8425C102 90.8032 103.701 87.8741 101.622 84.2835L88.6772 61.5591Z" fill="white"/>
</svg>
