<svg width="120" height="120" viewBox="0 0 120 120" fill="none" xmlns="http://www.w3.org/2000/svg">
<path d="M59.9614 120C93.1101 120 119.961 93.1487 119.961 60C119.961 26.8513 93.1101 0 59.9614 0C26.8126 0 0 26.8513 0 60C0 93.1487 26.8513 120 59.9614 120Z" fill="#008CE3"/>
<path d="M69.1179 33.7283H45.5506L43.6188 44.6233L64.868 44.6619C75.3381 44.6619 78.4289 48.4482 78.3516 54.7457C78.313 57.991 76.9221 63.4385 76.304 65.2157C74.6813 69.9292 71.3973 75.3381 58.9569 75.2994H38.2872L36.3168 86.2331H59.8069C68.0747 86.2331 71.6291 85.2672 75.3381 83.5287C83.6059 79.7038 88.5512 71.5518 90.5216 60.8886C93.4965 45.0097 89.8262 33.7283 69.1179 33.7283Z" fill="white"/>
<path d="M35.4282 54.5138C29.2466 54.5138 28.358 58.5318 27.7785 60.9658C27.0058 64.1339 26.774 65.4475 26.774 65.4475H50.8822C57.0637 65.4475 57.9524 61.4294 58.5319 58.9954C59.3046 55.8274 59.5364 54.5138 59.5364 54.5138H35.4282Z" fill="white"/>
</svg>
